<svg height="414" viewBox="0 0 600 414" width="600" xmlns="http://www.w3.org/2000/svg"><path d="m30.4 9.2-.5 3.7h-12.7v38h-4.3v-38h-12.9v-3.7zm20.2 0v17.9h20.6v-17.9h4.3v41.7h-4.3v-20.1h-20.6v20.1h-4.3v-41.7zm68.6 0-.5 3.6h-17.9v14.8h15.5v3.4h-15.5v16.4h18.8v3.5h-23.1v-41.7z" fill="#ecbf17"/><path d="m172.7 8.9 5 34.8 6.8-34.8h9.9l6.6 34.8 5.6-34.8h9l-7.8 42h-12.3l-6.2-32.2-6.4 32.2h-11.9l-7.6-42zm302.3 0 6.5 32.2 6.2-32.2h12.3l7.8 42h-9l-5.6-34.9-6.6 34.8h-9.9l-6.8-34.8-5 34.8h-9.4l7.6-42h11.9zm-184.5 0v34.4h17.6l-1 7.6h-26v-42zm56.9 0-1 6.8h-15.3v11.4h13.3v6.8h-13.3v16.9h-9.5v-42h25.8zm-101.3-.9c12.2 0 19.6 7.9 19.6 21.8 0 13.8-7.5 22-19.6 22-12.2 0-19.7-8-19.7-22 0-13.5 7.6-21.8 19.7-21.8zm0 7c-6.2 0-9.9 4.3-9.9 14.8 0 10.8 3.7 15 9.9 15 6.3 0 9.8-4.2 9.8-15 0-10.5-3.5-14.8-9.8-14.8zm185-6.1 13.6 42h-9.9l-2.5-9.3h-13.9l-2.5 9.3h-9.9l13.7-42h11.4zm-5.8 6.9-5 18.9h10.2zm-50.5-6.9c11.9 0 17.9 4.2 17.9 12.5 0 5.6-2.7 9.2-8.7 11.5l11.4 17.9h-10.8l-9.6-16.3h-4.7v16.3h-9.3v-42h13.8zm0 6.7h-4.3v12.4h4.8c5 0 7.7-1.8 7.7-6.4 0-4.2-2.6-6-8.2-6z" fill="#ecbf17"/><path d="m324.9 72.5c14.5 0 25.8 4.5 34.2 12.4l-12.1 14.2c-6.2-4.7-12.9-7.2-19.7-7.2-7.3 0-11 2.3-11 5.9 0 4.2 3 5 16 9.2 19.3 6.1 28 14.3 28 29.5 0 17.4-14.9 29.5-39.3 29.5-17.9 0-31.1-6.5-38.7-13.8l13.4-14.6c7 5.6 15.5 8.7 24.1 8.7 8.1 0 11.8-3.3 11.8-7.2 0-4.7-3-6.8-14.6-10.3-23.3-7-29.2-16.2-29.2-28.8-.2-18 17.2-27.5 37.1-27.5zm239.8 0c14.5 0 25.8 4.5 34.2 12.4l-12.1 14.1c-6.2-4.7-12.9-7.2-19.7-7.2-7.3 0-11 2.3-11 5.9 0 4.2 3 5 16 9.2 19.3 6.1 28 14.3 28 29.5 0 17.4-14.9 29.5-39.3 29.5-17.9 0-31.1-6.5-38.7-13.8l13.4-14.6c7 5.6 15.5 8.7 24.1 8.7 8.1 0 11.8-3.3 11.8-7.2 0-4.7-3-6.8-14.6-10.3-23.3-7-29.2-16.2-29.2-28.8-.2-17.9 17.2-27.4 37.1-27.4zm-87.6 0c12.9 0 22.7 4 30.5 10.7l-12.9 15.2c-4.5-3.9-9.5-6.2-16-6.2-10.6 0-17.1 9.2-17.1 26.6 0 18 6.7 26.6 17.9 26.6 6.7 0 11.7-3.1 17.3-7.3l12.1 15.4c-7 6.8-17.6 12.6-31.2 12.6-26.9 0-44.5-16.5-44.5-47.3-.1-28.9 18.1-46.3 43.9-46.3zm-443.5 2.3c25.3 0 40.6 10.1 40.6 30.2 0 20.8-15.4 31.2-37.5 31.2h-9.2v27.2h-27.5v-88.6zm88 0v32.2h21.4v-32.2h27.7v88.6h-27.7v-35.3h-21.4v35.3h-27.7v-88.6zm96.7 0 14.1 35.9 14-35.9h29.2l-30 56v32.6h-27.5v-32.5l-29.8-56.1zm193.8 0v88.6h-27.7v-88.6zm-378.8 19h-5.8v23.2h6.5c7.8 0 12.1-3.9 12.1-12.1.1-6.8-3.7-11.1-12.8-11.1z" fill="#fff"/><path d="m479.6 189.2c13.1 0 23 4.1 30.9 10.9l-13.1 15.4c-4.6-3.9-9.6-6.3-16.2-6.3-10.7 0-17.3 9.3-17.3 26.9 0 18.3 6.8 26.9 18.1 26.9 6.8 0 11.8-3.1 17.5-7.4l12.3 15.6c-7.1 6.9-17.8 12.8-31.6 12.8-27.2 0-45-16.7-45-47.9-.1-29.2 18.3-46.9 44.4-46.9zm-246.5 0c28.3 0 44.1 17.8 44.1 47.1 0 29-15.7 47.7-44.1 47.7-28.5 0-44.2-17.9-44.2-47.9-.1-28.5 15.7-46.9 44.2-46.9zm-199.1 2.4c25.7 0 41.1 10.2 41.1 30.5 0 21.1-15.6 31.6-37.9 31.6h-9.3v27.6h-27.9v-89.7zm95.7 0c27.1 0 40.6 9.6 40.6 28.3 0 11.3-4.7 19.4-16.5 25.2l23 36.2h-30.9l-17.6-31.5h-5.2v31.5h-28v-89.7zm198-.2v50.4c0 25.7-17.3 34.3-33.8 39.5l-7.4-19.7c12-4.3 13.4-11 13.4-20.8v-49.4zm88.4.2-2.8 19.2h-31.5v15.4h27.5v18.8h-27.5v17h33.5v19.4h-61.3v-89.7h62.1zm183.9 0-2.8 20.6h-21.6v69.1h-28v-69.1h-23v-20.6zm-366.9 17.3c-10.7 0-15.4 7.6-15.4 27.2 0 20.5 4.7 28.3 15.4 28.3 10.9 0 15.3-7.9 15.3-28.2-.1-19.7-4.8-27.3-15.3-27.3zm-199.4 1.9h-5.8v23.5h6.6c7.9 0 12.3-3.9 12.3-12.3 0-6.8-3.8-11.2-13.1-11.2zm96.2-.3h-6.8v20.8h7.1c7.9 0 11.8-3.3 11.8-10.9 0-6.8-4.1-9.9-12.1-9.9z" fill="#fff"/><path d="m63 320.4c0-4.2-2.9-5.8-7.9-5.8h-4.7l-2.1 14.9h4.5c8.2-.1 10.2-4.6 10.2-9.1m3 0c0 5.7-3.2 11.4-13.3 11.4h-4.7l-1.8 12.4h-2.8l4.5-31.9h7.4c6.7 0 10.7 2.5 10.7 8.1m17.6-.7-.8 2.6c-.5-.2-1.2-.3-1.9-.3-3.6 0-5.8 3.2-7.8 8.4l-2 13.9h-2.7l3.4-24.4h2.3l-.7 5.9c1.9-4.1 4.4-6.4 7.8-6.4 1-.1 1.8.1 2.4.3m18.8 9.2c0-4.9-2.1-7.4-6-7.4-7.2 0-9.3 8.4-9.3 13.5 0 4.8 2.2 7.4 6.1 7.4 7.1.1 9.2-8.2 9.2-13.5m-18.1 6c0-6.2 3-15.5 12.2-15.5 5.6 0 8.8 3.6 8.8 9.8 0 6-2.9 15.6-12.2 15.6-5.7-.1-8.8-3.8-8.8-9.9m29.8-23.6c0-1.2.9-2.1 2.2-2.1 1.1 0 1.9.7 1.9 1.8 0 1.2-.9 2.1-2.2 2.1-1.1-.1-1.9-.8-1.9-1.8zm-9.8 40.4c3.4-1.6 5.2-3 6-8.3l3.3-23.5h2.7l-3.4 23.6c-.9 6.5-3.2 8.2-7.9 10.3zm19.8-19.2c9-.7 13.9-2.7 13.9-7.2 0-1.9-1.3-3.7-4.4-3.7-6.1 0-8.9 5.8-9.5 10.9m-.2 2.1v.3c0 5.3 2.5 7.5 6.2 7.5 2.6 0 4.6-.8 6.9-2.4l1.2 1.9c-2.5 1.8-5.1 2.9-8.3 2.9-5.6 0-8.9-3.5-8.9-9.8 0-6.8 3.6-15.6 12.4-15.6 4.7 0 7.2 2.6 7.2 5.9.2 6.2-6.8 8.6-16.7 9.3m39.2-12.7-1.5 1.7c-1.4-1.3-2.9-2-5.1-2-7 0-9.3 8-9.3 13.4 0 5 2.4 7.3 6.1 7.3 2.3 0 4.1-.8 6-2.1l1.2 1.9c-2.1 1.6-4.6 2.5-7.3 2.5-5.4 0-8.8-3.5-8.8-9.8s3.2-15.6 12.1-15.6c2.6.1 4.8.9 6.6 2.7m8 16.3c-.4 2.8.5 4.2 2.8 4.2 1.4 0 2.7-.5 4-1.2l.9 2c-1.6.9-3.3 1.5-5.2 1.5-3.7 0-5.8-2.3-5.2-6.5l2.3-16.2h-4.1l.3-2.2h4.1l1.4-5.9 2.1-.2-.9 6.2h6.3l-.7 2.2h-5.9zm28.7 0c-.4 2.8.5 4.2 2.8 4.2 1.4 0 2.7-.5 4-1.2l.9 2c-1.6.9-3.3 1.5-5.2 1.5-3.7 0-5.8-2.3-5.2-6.5l2.3-16.2h-4.1l.3-2.2h4.1l1.4-5.9 2.1-.2-.9 6.2h6.3l-.6 2.1h-5.9zm29-9.3c0-4.9-2.1-7.4-6-7.4-7.2 0-9.3 8.4-9.3 13.5 0 4.8 2.2 7.4 6.1 7.4 7.1.1 9.2-8.2 9.2-13.5m-18.1 6c0-6.2 3-15.5 12.2-15.5 5.6 0 8.8 3.6 8.8 9.8 0 6-2.9 15.6-12.2 15.6-5.6-.1-8.8-3.8-8.8-9.9m59.7-20.3h-12.7l-1.8 12.4h11l-.3 2.3h-11l-2.1 14.8h-2.8l4.5-31.9h15.8zm5.5-3.3c0-1.2.9-2.1 2.2-2.1 1.1 0 1.9.7 1.9 1.8 0 1.2-.9 2.1-2.2 2.1-1.2-.1-1.9-.8-1.9-1.8zm-1.3 32.9h-2.7l3.4-24.4h2.7zm28.3-17.2-2.4 17.2h-2.7l2.4-17.1c.6-4-.8-5.5-3.4-5.5-3.5 0-6.6 3.5-9 8l-2.1 14.6h-2.7l3.4-24.4h2.3l-.6 6.1c2.4-4.1 5.5-6.6 9.2-6.6 4.2 0 6.3 2.9 5.6 7.7m8.6 8.3c0 4.8 1.9 7.2 5 7.2 3.6 0 5.9-2.8 8.2-6.7l1.5-10.6c-1.2-2.1-2.9-3.6-5.8-3.6-6.7 0-8.9 8.2-8.9 13.7zm19.5-25.4-4.8 34.3h-2.3l.4-4.9c-1.7 3-4.3 5.5-8.1 5.5-4.8 0-7.5-3.6-7.5-9.6 0-6.3 2.9-15.8 11.4-15.8 3.3 0 5.3 1.6 6.4 3.4l1.9-13.1zm21.3 28.3c-.4 2.8.5 4.2 2.8 4.2 1.4 0 2.7-.5 4-1.2l.9 2c-1.6.9-3.3 1.5-5.2 1.5-3.7 0-5.8-2.3-5.2-6.5l2.3-16.2h-4.1l.3-2.2h4.1l1.4-5.9 2.1-.2-.9 6.2h6.3l-.7 2.2h-5.9zm32.1-11.3-2.5 17.3h-2.7l2.4-17.1c.6-4-.7-5.5-3.4-5.5-3.6 0-6.7 3.5-9 8l-2.1 14.6h-2.7l4.8-34.3 2.7-.3-2.3 16.2c2.3-4 5.5-6.4 9-6.4 4.5-.1 6.5 2.8 5.8 7.5m8.6 5.6c9-.7 13.9-2.7 13.9-7.2 0-1.9-1.3-3.7-4.4-3.7-6.1 0-8.9 5.8-9.5 10.9m-.2 2.1v.3c0 5.3 2.5 7.5 6.2 7.5 2.6 0 4.6-.8 6.9-2.4l1.2 1.9c-2.5 1.8-5.1 2.9-8.3 2.9-5.6 0-8.9-3.5-8.9-9.8 0-6.8 3.6-15.6 12.4-15.6 4.7 0 7.2 2.6 7.2 5.9.1 6.2-6.8 8.6-16.7 9.3m-369.7 34h-12.2l-1.7 11.9h10.6l-.3 2.2h-10.6l-2 14.2h-2.7l4.3-30.5h15.1zm1.2 21.6 2.3-16.6h2.6l-2.3 16.5c-.5 3.7.8 5.2 3.3 5.2 3.5 0 6.3-3.3 8.4-7.4l2-14.3h2.6l-3.3 23.3h-2.1l.6-5.9c-2 3.7-4.9 6.4-8.6 6.4-4.1 0-6.2-2.7-5.5-7.2m42.6-9.7-2.3 16.4h-2.6l2.3-16.4c.5-3.8-.8-5.3-3.3-5.3-3.4 0-6.3 3.4-8.6 7.7l-2 13.9h-2.6l3.3-23.3h2.2l-.6 5.8c2.3-3.9 5.3-6.3 8.8-6.3 4.1.1 6.1 2.8 5.4 7.5m8.2 7.9c0 4.5 1.8 6.9 4.8 6.9 3.4 0 5.6-2.6 7.8-6.4l1.5-10.2c-1.2-2-2.8-3.4-5.5-3.4-6.5 0-8.6 7.8-8.6 13.1zm18.7-24.3-4.6 32.8h-2.2l.4-4.7c-1.6 2.9-4.1 5.2-7.7 5.2-4.5 0-7.2-3.5-7.2-9.2 0-6.1 2.8-15.1 10.9-15.1 3.2 0 5 1.6 6.1 3.2l1.8-12.5zm6 24.3c0 4.5 1.8 6.9 5 6.9 2.9 0 5-1.9 6.9-4.9l2-14c-1.3-.7-2.7-1.1-4.6-1.1-6.8-.1-9.3 7.7-9.3 13.1m16.7-13.4-2.5 16.8c-.3 2-.1 3.1 1.4 3.7l-.8 1.8c-1.9-.4-3.2-1.5-3.1-4.2-1.7 2.5-4.2 4.2-7.2 4.2-4.6 0-7.4-3.5-7.4-9 0-6.3 3.2-15.2 12-15.2 3.2 0 5.4.8 7.6 1.9m35.9 5.3-2.3 16.6h-2.6l2.3-16.4c.5-3.9-.8-5.3-2.9-5.3-3 0-5.7 3.4-7.9 7.6l-2 14h-2.6l2.3-16.4c.5-3.9-.8-5.3-2.9-5.3-3 0-5.7 3.4-7.9 7.7l-2 13.9h-2.6l3.3-23.3h2.2l-.6 5.7c2.3-3.9 5-6.2 8.2-6.2 2.9 0 5 2.1 4.9 5.8 2.4-3.7 5.1-5.8 8.2-5.8 3.6.2 5.6 2.9 4.9 7.4m8.3 5.4c8.6-.7 13.3-2.6 13.3-6.9 0-1.8-1.2-3.6-4.2-3.6-5.9.1-8.5 5.6-9.1 10.5m-.2 2v.3c0 5.1 2.4 7.1 5.9 7.1 2.5 0 4.4-.8 6.6-2.3l1.2 1.8c-2.4 1.7-4.9 2.8-7.9 2.8-5.3 0-8.5-3.4-8.5-9.4 0-6.5 3.4-14.9 11.9-14.9 4.5 0 6.9 2.5 6.9 5.6 0 6-6.6 8.3-16.1 9m38.7-7.2-2.3 16.4h-2.6l2.3-16.4c.5-3.8-.8-5.3-3.3-5.3-3.4 0-6.3 3.4-8.6 7.7l-2 13.9h-2.6l3.3-23.3h2.2l-.6 5.8c2.3-3.9 5.3-6.3 8.8-6.3 4.1.1 6.1 2.8 5.4 7.5m9.3 10.7c-.4 2.7.4 4 2.7 4 1.3 0 2.5-.4 3.8-1.1l.9 1.9c-1.5.9-3.2 1.4-5 1.4-3.5 0-5.5-2.2-4.9-6.2l2.2-15.5h-3.9l.3-2.1h4l1.3-5.7 2-.2-.8 5.9h6l-.6 2.1h-5.7zm13.2-2.8c0 4.5 1.8 6.9 5 6.9 2.9 0 5-1.9 7-4.9l2-14c-1.3-.7-2.7-1.1-4.6-1.1-6.9-.1-9.4 7.7-9.4 13.1m16.7-13.4-2.4 16.8c-.3 2-.1 3.1 1.4 3.7l-.8 1.8c-1.9-.4-3.2-1.5-3.1-4.2-1.7 2.5-4.2 4.2-7.2 4.2-4.6 0-7.4-3.5-7.4-9 0-6.3 3.2-15.2 12-15.2 3.1 0 5.3.8 7.5 1.9m7.9 18c-.2 1.5.2 2.2 1.5 2.2.6 0 1.2-.2 1.7-.4l.6 2c-.9.4-1.8.6-2.7.6-2.6 0-4-1.5-3.6-4.8l4.1-28.5 2.6-.4zm42.4-24.2h-8.9l-4 28.2h-2.7l4-28.2h-9l.4-2.4h20.9zm20.2 11.6-2.4 16.5h-2.6l2.3-16.4c.5-3.8-.7-5.3-3.3-5.3-3.5 0-6.4 3.4-8.6 7.7l-2 13.9h-2.6l4.6-32.8 2.6-.3-2.2 15.5c2.2-3.8 5.2-6.1 8.6-6.1 4.3 0 6.2 2.7 5.6 7.3m8.2 5.3c8.6-.7 13.3-2.6 13.3-6.9 0-1.8-1.2-3.6-4.2-3.6-5.9.1-8.5 5.6-9.1 10.5m-.2 2v.3c0 5.1 2.4 7.1 5.9 7.1 2.5 0 4.4-.8 6.6-2.3l1.2 1.8c-2.4 1.7-4.9 2.8-7.9 2.8-5.3 0-8.5-3.4-8.5-9.4 0-6.5 3.4-14.9 11.9-14.9 4.5 0 6.9 2.5 6.9 5.6 0 6-6.6 8.3-16.1 9m37-5.4c0-4.7-2-7-5.7-7-6.9 0-8.9 8.1-8.9 12.9 0 4.6 2.1 7 5.8 7 6.8 0 8.8-7.9 8.8-12.9m-17.4 5.7c0-5.9 2.9-14.8 11.6-14.8 5.4 0 8.4 3.4 8.4 9.4 0 5.7-2.8 14.9-11.6 14.9-5.3-.1-8.4-3.7-8.4-9.5m39.3-14.6-.8 2.4c-.5-.2-1.1-.3-1.8-.3-3.4 0-5.6 3-7.5 8l-1.9 13.3h-2.6l3.3-23.3h2.2l-.6 5.7c1.8-3.9 4.2-6.1 7.4-6.1 1 0 1.8.2 2.3.3m11.2 23.7c-2.4 5.1-5 7.8-10.8 8.9l-.1-2c4.9-1.1 6.3-2.9 8.4-7h-1l-4.8-23.3h2.8l4 21.3 9.9-21.3h2.8zm42.4-14.8c0-4.7-2-7-5.7-7-6.9 0-8.9 8.1-8.9 12.9 0 4.6 2.1 7 5.8 7 6.8 0 8.8-7.9 8.8-12.9m-17.4 5.7c0-5.9 2.9-14.8 11.6-14.8 5.4 0 8.4 3.4 8.4 9.4 0 5.7-2.8 14.9-11.6 14.9-5.3-.1-8.4-3.7-8.4-9.5m31.5-18.1-.5 3.7h6.1l-.6 2.1h-5.8l-2.9 20.5c-.9 6.2-3.1 7.8-7.5 9.8l-.8-2c3.3-1.5 5-2.8 5.7-7.9l2.8-20.4h-4l.3-2.1h4l.5-3.9c.5-3.7 3.2-6 7.1-6 2.1 0 3.7.6 5.4 1.6l-1 1.8c-1.5-.9-2.8-1.2-4.3-1.2-2.5 0-4.1 1.3-4.5 4m38.8 4.2c0-4.1-2.8-5.5-7.5-5.5h-4.5l-2 14.2h4.3c7.8 0 9.7-4.3 9.7-8.7m2.9 0c0 5.5-3 10.9-12.7 10.9h-4.5l-1.7 11.9h-2.7l4.3-30.5h7c6.5 0 10.3 2.4 10.3 7.7m21.3 6.3-2.4 16.5h-2.6l2.3-16.4c.5-3.8-.7-5.3-3.3-5.3-3.5 0-6.4 3.4-8.6 7.7l-2 13.9h-2.6l4.6-32.8 2.6-.3-2.2 15.5c2.2-3.8 5.2-6.1 8.6-6.1 4.4 0 6.3 2.7 5.6 7.3m13.2 16.7c-2.4 5.1-5 7.8-10.8 8.9l-.1-2c4.9-1.1 6.3-2.9 8.4-7h-1l-4.8-23.3h2.8l4 21.3 9.9-21.3h2.8zm28.8-21.4-1.4 1.6c-1.7-1.3-3.5-2-5.8-2-3.3 0-5.5 1.5-5.5 3.9 0 2 1.2 3.1 5.1 4.3 4.6 1.4 6.5 3.3 6.5 6.7 0 4.3-3.5 7.2-9.1 7.2-3.9 0-6.4-1.4-8.2-3.2l1.5-1.5c1.8 1.5 3.9 2.5 6.8 2.5 4.1 0 6.3-2 6.3-4.8 0-2.5-1.2-3.6-5.3-4.9-4.7-1.5-6.2-3.3-6.2-6.2 0-3.3 3-6.2 8.2-6.2 2.9 0 5.2 1 7.1 2.6m7.4-10.3c0-1.2.9-2 2.1-2 1.1 0 1.8.7 1.8 1.7 0 1.2-.9 2-2.1 2-1.1 0-1.8-.7-1.8-1.7zm-1.3 31.5h-2.6l3.3-23.3h2.6zm25.9-21.4-1.5 1.6c-1.3-1.2-2.8-1.9-4.9-1.9-6.7 0-8.9 7.7-8.9 12.8 0 4.8 2.3 7 5.8 7 2.2 0 4-.8 5.7-2l1.1 1.8c-2 1.6-4.4 2.4-7 2.4-5.2 0-8.4-3.4-8.4-9.4 0-6.1 3.1-14.9 11.6-14.9 2.7.2 4.8.9 6.5 2.6m19.5.2-1.4 1.6c-1.7-1.3-3.5-2-5.8-2-3.3 0-5.5 1.5-5.5 3.9 0 2 1.2 3.1 5.1 4.3 4.6 1.4 6.5 3.3 6.5 6.7 0 4.3-3.5 7.2-9.1 7.2-3.9 0-6.4-1.4-8.2-3.2l1.5-1.5c1.8 1.5 3.9 2.5 6.8 2.5 4.1 0 6.3-2 6.3-4.8 0-2.5-1.2-3.6-5.3-4.9-4.7-1.5-6.2-3.3-6.2-6.2 0-3.3 3-6.2 8.2-6.2 2.9 0 5.1 1 7.1 2.6m-584.9-63.4-15.1 31.9h2.9l4-8.7h13.4l1.5 8.7h2.9l-6.1-31.9zm1.4 2.3 3.3 18.5h-11.8z" fill="#ecbf17"/></svg>