<?xml version="1.0" encoding="utf-8"?>
<svg width="600px" height="414px" viewBox="0 0 600 414" version="1.1" xmlns="http://www.w3.org/2000/svg" xmlns:xlink="http://www.w3.org/1999/xlink">
<style type="text/css">
	.svgyellow{fill:#ECBF17;}
	.svgwhite{fill:#FFFFFF;}
</style>
<path class="svgyellow" d="M30.4,9.2l-0.5,3.7H17.2v38h-4.3v-38H0V9.2H30.4z M50.6,9.2v17.9h20.6V9.2h4.3v41.7h-4.3V30.8H50.6v20.1h-4.3
	V9.2H50.6z M119.2,9.2l-0.5,3.6h-17.9v14.8h15.5V31h-15.5v16.4h18.8v3.5H96.5V9.2H119.2z"/>
<path class="svgyellow" d="M172.7,8.9l5,34.8l6.8-34.8h9.9l6.6,34.8l5.6-34.8h9l-7.8,42h-12.3l-6.2-32.2l-6.4,32.2h-11.9l-7.6-42H172.7z
	 M475,8.9l6.5,32.2l6.2-32.2h12.3l7.8,42h-9L493.2,16l-6.6,34.8h-9.9l-6.8-34.8l-5,34.8h-9.4l7.6-42H475z M290.5,8.9v34.4h17.6
	l-1,7.6h-26v-42H290.5z M347.4,8.9l-1,6.8h-15.3v11.4h13.3v6.8h-13.3v16.9h-9.5v-42H347.4z M246.1,8c12.2,0,19.6,7.9,19.6,21.8
	c0,13.8-7.5,22-19.6,22c-12.2,0-19.7-8-19.7-22C226.4,16.3,234,8,246.1,8z M246.1,15c-6.2,0-9.9,4.3-9.9,14.8c0,10.8,3.7,15,9.9,15
	c6.3,0,9.8-4.2,9.8-15C255.9,19.3,252.4,15,246.1,15z M431.1,8.9l13.6,42h-9.9l-2.5-9.3h-13.9l-2.5,9.3H406l13.7-42H431.1z
	 M425.3,15.8l-5,18.9h10.2L425.3,15.8z M374.8,8.9c11.9,0,17.9,4.2,17.9,12.5c0,5.6-2.7,9.2-8.7,11.5l11.4,17.9h-10.8l-9.6-16.3
	h-4.7v16.3H361v-42H374.8z M374.8,15.6h-4.3v12.4h4.8c5,0,7.7-1.8,7.7-6.4C383,17.4,380.4,15.6,374.8,15.6z"/>
<path class="svgwhite" d="M324.9,72.5c14.5,0,25.8,4.5,34.2,12.4L347,99.1c-6.2-4.7-12.9-7.2-19.7-7.2
	c-7.3,0-11,2.3-11,5.9c0,4.2,3,5,16,9.2c19.3,6.1,28,14.3,28,29.5c0,17.4-14.9,29.5-39.3,29.5c-17.9,0-31.1-6.5-38.7-13.8l13.4-14.6
	c7,5.6,15.5,8.7,24.1,8.7c8.1,0,11.8-3.3,11.8-7.2c0-4.7-3-6.8-14.6-10.3c-23.3-7-29.2-16.2-29.2-28.8C287.6,82,305,72.5,324.9,72.5
	z M564.7,72.5c14.5,0,25.8,4.5,34.2,12.4l-12.1,14.1c-6.2-4.7-12.9-7.2-19.7-7.2c-7.3,0-11,2.3-11,5.9c0,4.2,3,5,16,9.2
	c19.3,6.1,28,14.3,28,29.5c0,17.4-14.9,29.5-39.3,29.5c-17.9,0-31.1-6.5-38.7-13.8l13.4-14.6c7,5.6,15.5,8.7,24.1,8.7
	c8.1,0,11.8-3.3,11.8-7.2c0-4.7-3-6.8-14.6-10.3c-23.3-7-29.2-16.2-29.2-28.8C527.4,82,544.8,72.5,564.7,72.5z M477.1,72.5
	c12.9,0,22.7,4,30.5,10.7l-12.9,15.2c-4.5-3.9-9.5-6.2-16-6.2c-10.6,0-17.1,9.2-17.1,26.6c0,18,6.7,26.6,17.9,26.6
	c6.7,0,11.7-3.1,17.3-7.3l12.1,15.4c-7,6.8-17.6,12.6-31.2,12.6c-26.9,0-44.5-16.5-44.5-47.3C433.1,89.9,451.3,72.5,477.1,72.5z
	 M33.6,74.8c25.3,0,40.6,10.1,40.6,30.2c0,20.8-15.4,31.2-37.5,31.2h-9.2v27.2H0V74.8H33.6z M121.6,74.8V107H143V74.8h27.7v88.6H143
	v-35.3h-21.4v35.3H93.9V74.8H121.6z M218.3,74.8l14.1,35.9l14-35.9h29.2l-30,56v32.6h-27.5v-32.5l-29.8-56.1H218.3z M412.1,74.8
	v88.6h-27.7V74.8H412.1z M33.3,93.8h-5.8V117H34c7.8,0,12.1-3.9,12.1-12.1C46.2,98.1,42.4,93.8,33.3,93.8z"/>
<path class="svgwhite" d="M479.6,189.2c13.1,0,23,4.1,30.9,10.9l-13.1,15.4c-4.6-3.9-9.6-6.3-16.2-6.3
	c-10.7,0-17.3,9.3-17.3,26.9c0,18.3,6.8,26.9,18.1,26.9c6.8,0,11.8-3.1,17.5-7.4l12.3,15.6c-7.1,6.9-17.8,12.8-31.6,12.8
	c-27.2,0-45-16.7-45-47.9C435.1,206.9,453.5,189.2,479.6,189.2z M233.1,189.2c28.3,0,44.1,17.8,44.1,47.1c0,29-15.7,47.7-44.1,47.7
	c-28.5,0-44.2-17.9-44.2-47.9C188.8,207.6,204.6,189.2,233.1,189.2z M34,191.6c25.7,0,41.1,10.2,41.1,30.5
	c0,21.1-15.6,31.6-37.9,31.6h-9.3v27.6H0v-89.7H34z M129.7,191.6c27.1,0,40.6,9.6,40.6,28.3c0,11.3-4.7,19.4-16.5,25.2l23,36.2
	h-30.9l-17.6-31.5h-5.2v31.5h-28v-89.7H129.7z M327.7,191.4v50.4c0,25.7-17.3,34.3-33.8,39.5l-7.4-19.7c12-4.3,13.4-11,13.4-20.8
	v-49.4H327.7z M416.1,191.6l-2.8,19.2h-31.5v15.4h27.5V245h-27.5v17h33.5v19.4H354v-89.7H416.1z M600,191.6l-2.8,20.6h-21.6v69.1
	h-28v-69.1h-23v-20.6H600z M233.1,208.9c-10.7,0-15.4,7.6-15.4,27.2c0,20.5,4.7,28.3,15.4,28.3c10.9,0,15.3-7.9,15.3-28.2
	C248.3,216.5,243.6,208.9,233.1,208.9z M33.7,210.8h-5.8v23.5h6.6c7.9,0,12.3-3.9,12.3-12.3C46.8,215.2,43,210.8,33.7,210.8z
	 M129.9,210.5h-6.8v20.8h7.1c7.9,0,11.8-3.3,11.8-10.9C142,213.6,137.9,210.5,129.9,210.5z"/>
<path class="svgyellow" d="M63,320.4c0-4.2-2.9-5.8-7.9-5.8h-4.7l-2.1,14.9h4.5C61,329.4,63,324.9,63,320.4 M66,320.4
	c0,5.7-3.2,11.4-13.3,11.4H48l-1.8,12.4h-2.8l4.5-31.9h7.4C62,312.3,66,314.8,66,320.4 M83.6,319.7l-0.8,2.6
	c-0.5-0.2-1.2-0.3-1.9-0.3c-3.6,0-5.8,3.2-7.8,8.4l-2,13.9h-2.7l3.4-24.4h2.3l-0.7,5.9c1.9-4.1,4.4-6.4,7.8-6.4
	C82.2,319.3,83,319.5,83.6,319.7 M102.4,328.9c0-4.9-2.1-7.4-6-7.4c-7.2,0-9.3,8.4-9.3,13.5c0,4.8,2.2,7.4,6.1,7.4
	C100.3,342.5,102.4,334.2,102.4,328.9 M84.3,334.9c0-6.2,3-15.5,12.2-15.5c5.6,0,8.8,3.6,8.8,9.8c0,6-2.9,15.6-12.2,15.6
	C87.4,344.7,84.3,341,84.3,334.9 M114.1,311.3c0-1.2,0.9-2.1,2.2-2.1c1.1,0,1.9,0.7,1.9,1.8c0,1.2-0.9,2.1-2.2,2.1
	C114.9,313,114.1,312.3,114.1,311.3L114.1,311.3z M104.3,351.7c3.4-1.6,5.2-3,6-8.3l3.3-23.5h2.7l-3.4,23.6
	c-0.9,6.5-3.2,8.2-7.9,10.3L104.3,351.7z M124.1,332.5c9-0.7,13.9-2.7,13.9-7.2c0-1.9-1.3-3.7-4.4-3.7
	C127.5,321.6,124.7,327.4,124.1,332.5 M123.9,334.6v0.3c0,5.3,2.5,7.5,6.2,7.5c2.6,0,4.6-0.8,6.9-2.4l1.2,1.9
	c-2.5,1.8-5.1,2.9-8.3,2.9c-5.6,0-8.9-3.5-8.9-9.8c0-6.8,3.6-15.6,12.4-15.6c4.7,0,7.2,2.6,7.2,5.9
	C140.8,331.5,133.8,333.9,123.9,334.6 M163.1,321.9l-1.5,1.7c-1.4-1.3-2.9-2-5.1-2c-7,0-9.3,8-9.3,13.4c0,5,2.4,7.3,6.1,7.3
	c2.3,0,4.1-0.8,6-2.1l1.2,1.9c-2.1,1.6-4.6,2.5-7.3,2.5c-5.4,0-8.8-3.5-8.8-9.8c0-6.3,3.2-15.6,12.1-15.6
	C159.1,319.3,161.3,320.1,163.1,321.9 M171.1,338.2c-0.4,2.8,0.5,4.2,2.8,4.2c1.4,0,2.7-0.5,4-1.2l0.9,2c-1.6,0.9-3.3,1.5-5.2,1.5
	c-3.7,0-5.8-2.3-5.2-6.5l2.3-16.2h-4.1l0.3-2.2h4.1l1.4-5.9l2.1-0.2l-0.9,6.2h6.3l-0.7,2.2h-5.9L171.1,338.2z M199.8,338.2
	c-0.4,2.8,0.5,4.2,2.8,4.2c1.4,0,2.7-0.5,4-1.2l0.9,2c-1.6,0.9-3.3,1.5-5.2,1.5c-3.7,0-5.8-2.3-5.2-6.5l2.3-16.2h-4.1l0.3-2.2h4.1
	l1.4-5.9l2.1-0.2l-0.9,6.2h6.3L208,322h-5.9L199.8,338.2z M228.8,328.9c0-4.9-2.1-7.4-6-7.4c-7.2,0-9.3,8.4-9.3,13.5
	c0,4.8,2.2,7.4,6.1,7.4C226.7,342.5,228.8,334.2,228.8,328.9 M210.7,334.9c0-6.2,3-15.5,12.2-15.5c5.6,0,8.8,3.6,8.8,9.8
	c0,6-2.9,15.6-12.2,15.6C213.9,344.7,210.7,341,210.7,334.9 M270.4,314.6h-12.7l-1.8,12.4h11l-0.3,2.3h-11l-2.1,14.8h-2.8l4.5-31.9
	h15.8L270.4,314.6z M275.9,311.3c0-1.2,0.9-2.1,2.2-2.1c1.1,0,1.9,0.7,1.9,1.8c0,1.2-0.9,2.1-2.2,2.1
	C276.6,313,275.9,312.3,275.9,311.3L275.9,311.3z M274.6,344.2h-2.7l3.4-24.4h2.7L274.6,344.2z M302.9,327l-2.4,17.2h-2.7l2.4-17.1
	c0.6-4-0.8-5.5-3.4-5.5c-3.5,0-6.6,3.5-9,8l-2.1,14.6H283l3.4-24.4h2.3l-0.6,6.1c2.4-4.1,5.5-6.6,9.2-6.6
	C301.5,319.3,303.6,322.2,302.9,327 M311.5,335.3c0,4.8,1.9,7.2,5,7.2c3.6,0,5.9-2.8,8.2-6.7l1.5-10.6c-1.2-2.1-2.9-3.6-5.8-3.6
	C313.7,321.6,311.5,329.8,311.5,335.3L311.5,335.3z M331,309.9l-4.8,34.3h-2.3l0.4-4.9c-1.7,3-4.3,5.5-8.1,5.5
	c-4.8,0-7.5-3.6-7.5-9.6c0-6.3,2.9-15.8,11.4-15.8c3.3,0,5.3,1.6,6.4,3.4l1.9-13.1L331,309.9z M352.3,338.2
	c-0.4,2.8,0.5,4.2,2.8,4.2c1.4,0,2.7-0.5,4-1.2l0.9,2c-1.6,0.9-3.3,1.5-5.2,1.5c-3.7,0-5.8-2.3-5.2-6.5l2.3-16.2h-4.1l0.3-2.2h4.1
	l1.4-5.9l2.1-0.2l-0.9,6.2h6.3l-0.7,2.2h-5.9L352.3,338.2z M384.4,326.9l-2.5,17.3h-2.7l2.4-17.1c0.6-4-0.7-5.5-3.4-5.5
	c-3.6,0-6.7,3.5-9,8l-2.1,14.6h-2.7l4.8-34.3l2.7-0.3l-2.3,16.2c2.3-4,5.5-6.4,9-6.4C383.1,319.3,385.1,322.2,384.4,326.9
	 M393,332.5c9-0.7,13.9-2.7,13.9-7.2c0-1.9-1.3-3.7-4.4-3.7C396.4,321.6,393.6,327.4,393,332.5 M392.8,334.6v0.3
	c0,5.3,2.5,7.5,6.2,7.5c2.6,0,4.6-0.8,6.9-2.4l1.2,1.9c-2.5,1.8-5.1,2.9-8.3,2.9c-5.6,0-8.9-3.5-8.9-9.8c0-6.8,3.6-15.6,12.4-15.6
	c4.7,0,7.2,2.6,7.2,5.9C409.6,331.5,402.7,333.9,392.8,334.6 M23.1,368.6H10.9l-1.7,11.9h10.6l-0.3,2.2H8.9l-2,14.2H4.2l4.3-30.5
	h15.1L23.1,368.6z M24.3,390.2l2.3-16.6h2.6l-2.3,16.5c-0.5,3.7,0.8,5.2,3.3,5.2c3.5,0,6.3-3.3,8.4-7.4l2-14.3h2.6l-3.3,23.3h-2.1
	l0.6-5.9c-2,3.7-4.9,6.4-8.6,6.4C25.7,397.4,23.6,394.7,24.3,390.2 M66.9,380.5l-2.3,16.4H62l2.3-16.4c0.5-3.8-0.8-5.3-3.3-5.3
	c-3.4,0-6.3,3.4-8.6,7.7l-2,13.9h-2.6l3.3-23.3h2.2l-0.6,5.8c2.3-3.9,5.3-6.3,8.8-6.3C65.6,373.1,67.6,375.8,66.9,380.5 M75.1,388.4
	c0,4.5,1.8,6.9,4.8,6.9c3.4,0,5.6-2.6,7.8-6.4l1.5-10.2c-1.2-2-2.8-3.4-5.5-3.4C77.2,375.3,75.1,383.1,75.1,388.4L75.1,388.4z
	 M93.8,364.1l-4.6,32.8h-2.2l0.4-4.7c-1.6,2.9-4.1,5.2-7.7,5.2c-4.5,0-7.2-3.5-7.2-9.2c0-6.1,2.8-15.1,10.9-15.1
	c3.2,0,5,1.6,6.1,3.2l1.8-12.5L93.8,364.1z M99.8,388.4c0,4.5,1.8,6.9,5,6.9c2.9,0,5-1.9,6.9-4.9l2-14c-1.3-0.7-2.7-1.1-4.6-1.1
	C102.3,375.2,99.8,383,99.8,388.4 M116.5,375l-2.5,16.8c-0.3,2-0.1,3.1,1.4,3.7l-0.8,1.8c-1.9-0.4-3.2-1.5-3.1-4.2
	c-1.7,2.5-4.2,4.2-7.2,4.2c-4.6,0-7.4-3.5-7.4-9c0-6.3,3.2-15.2,12-15.2C112.1,373.1,114.3,373.9,116.5,375 M152.4,380.3l-2.3,16.6
	h-2.6l2.3-16.4c0.5-3.9-0.8-5.3-2.9-5.3c-3,0-5.7,3.4-7.9,7.6l-2,14h-2.6l2.3-16.4c0.5-3.9-0.8-5.3-2.9-5.3c-3,0-5.7,3.4-7.9,7.7
	l-2,13.9h-2.6l3.3-23.3h2.2l-0.6,5.7c2.3-3.9,5-6.2,8.2-6.2c2.9,0,5,2.1,4.9,5.8c2.4-3.7,5.1-5.8,8.2-5.8
	C151.1,373.1,153.1,375.8,152.4,380.3 M160.7,385.7c8.6-0.7,13.3-2.6,13.3-6.9c0-1.8-1.2-3.6-4.2-3.6
	C163.9,375.3,161.3,380.8,160.7,385.7 M160.5,387.7v0.3c0,5.1,2.4,7.1,5.9,7.1c2.5,0,4.4-0.8,6.6-2.3l1.2,1.8
	c-2.4,1.7-4.9,2.8-7.9,2.8c-5.3,0-8.5-3.4-8.5-9.4c0-6.5,3.4-14.9,11.9-14.9c4.5,0,6.9,2.5,6.9,5.6C176.6,384.7,170,387,160.5,387.7
	 M199.2,380.5l-2.3,16.4h-2.6l2.3-16.4c0.5-3.8-0.8-5.3-3.3-5.3c-3.4,0-6.3,3.4-8.6,7.7l-2,13.9h-2.6l3.3-23.3h2.2l-0.6,5.8
	c2.3-3.9,5.3-6.3,8.8-6.3C197.9,373.1,199.9,375.8,199.2,380.5 M208.5,391.2c-0.4,2.7,0.4,4,2.7,4c1.3,0,2.5-0.4,3.8-1.1l0.9,1.9
	c-1.5,0.9-3.2,1.4-5,1.4c-3.5,0-5.5-2.2-4.9-6.2l2.2-15.5h-3.9l0.3-2.1h4l1.3-5.7l2-0.2l-0.8,5.9h6l-0.6,2.1h-5.7L208.5,391.2z
	 M221.7,388.4c0,4.5,1.8,6.9,5,6.9c2.9,0,5-1.9,7-4.9l2-14c-1.3-0.7-2.7-1.1-4.6-1.1C224.2,375.2,221.7,383,221.7,388.4 M238.4,375
	l-2.4,16.8c-0.3,2-0.1,3.1,1.4,3.7l-0.8,1.8c-1.9-0.4-3.2-1.5-3.1-4.2c-1.7,2.5-4.2,4.2-7.2,4.2c-4.6,0-7.4-3.5-7.4-9
	c0-6.3,3.2-15.2,12-15.2C234,373.1,236.2,373.9,238.4,375 M246.3,393c-0.2,1.5,0.2,2.2,1.5,2.2c0.6,0,1.2-0.2,1.7-0.4l0.6,2
	c-0.9,0.4-1.8,0.6-2.7,0.6c-2.6,0-4-1.5-3.6-4.8l4.1-28.5l2.6-0.4L246.3,393z M288.7,368.8h-8.9l-4,28.2h-2.7l4-28.2h-9l0.4-2.4
	h20.9L288.7,368.8z M308.9,380.4l-2.4,16.5h-2.6l2.3-16.4c0.5-3.8-0.7-5.3-3.3-5.3c-3.5,0-6.4,3.4-8.6,7.7l-2,13.9h-2.6l4.6-32.8
	l2.6-0.3l-2.2,15.5c2.2-3.8,5.2-6.1,8.6-6.1C307.6,373.1,309.5,375.8,308.9,380.4 M317.1,385.7c8.6-0.7,13.3-2.6,13.3-6.9
	c0-1.8-1.2-3.6-4.2-3.6C320.3,375.3,317.7,380.8,317.1,385.7 M316.9,387.7v0.3c0,5.1,2.4,7.1,5.9,7.1c2.5,0,4.4-0.8,6.6-2.3l1.2,1.8
	c-2.4,1.7-4.9,2.8-7.9,2.8c-5.3,0-8.5-3.4-8.5-9.4c0-6.5,3.4-14.9,11.9-14.9c4.5,0,6.9,2.5,6.9,5.6C333,384.7,326.4,387,316.9,387.7
	 M353.9,382.3c0-4.7-2-7-5.7-7c-6.9,0-8.9,8.1-8.9,12.9c0,4.6,2.1,7,5.8,7C351.9,395.2,353.9,387.3,353.9,382.3 M336.5,388
	c0-5.9,2.9-14.8,11.6-14.8c5.4,0,8.4,3.4,8.4,9.4c0,5.7-2.8,14.9-11.6,14.9C339.6,397.4,336.5,393.8,336.5,388 M375.8,373.4
	l-0.8,2.4c-0.5-0.2-1.1-0.3-1.8-0.3c-3.4,0-5.6,3-7.5,8l-1.9,13.3h-2.6l3.3-23.3h2.2l-0.6,5.7c1.8-3.9,4.2-6.1,7.4-6.1
	C374.5,373.1,375.3,373.3,375.8,373.4 M387,397.1c-2.4,5.1-5,7.8-10.8,8.9l-0.1-2c4.9-1.1,6.3-2.9,8.4-7h-1l-4.8-23.3h2.8l4,21.3
	l9.9-21.3h2.8L387,397.1z M429.4,382.3c0-4.7-2-7-5.7-7c-6.9,0-8.9,8.1-8.9,12.9c0,4.6,2.1,7,5.8,7
	C427.4,395.2,429.4,387.3,429.4,382.3 M412,388c0-5.9,2.9-14.8,11.6-14.8c5.4,0,8.4,3.4,8.4,9.4c0,5.7-2.8,14.9-11.6,14.9
	C415.1,397.4,412,393.8,412,388 M443.5,369.9l-0.5,3.7h6.1l-0.6,2.1h-5.8l-2.9,20.5c-0.9,6.2-3.1,7.8-7.5,9.8l-0.8-2
	c3.3-1.5,5-2.8,5.7-7.9l2.8-20.4h-4l0.3-2.1h4l0.5-3.9c0.5-3.7,3.2-6,7.1-6c2.1,0,3.7,0.6,5.4,1.6l-1,1.8c-1.5-0.9-2.8-1.2-4.3-1.2
	C445.5,365.9,443.9,367.2,443.5,369.9 M482.3,374.1c0-4.1-2.8-5.5-7.5-5.5h-4.5l-2,14.2h4.3C480.4,382.8,482.3,378.5,482.3,374.1
	 M485.2,374.1c0,5.5-3,10.9-12.7,10.9H468l-1.7,11.9h-2.7l4.3-30.5h7C481.4,366.4,485.2,368.8,485.2,374.1 M506.5,380.4l-2.4,16.5
	h-2.6l2.3-16.4c0.5-3.8-0.7-5.3-3.3-5.3c-3.5,0-6.4,3.4-8.6,7.7l-2,13.9h-2.6l4.6-32.8l2.6-0.3l-2.2,15.5c2.2-3.8,5.2-6.1,8.6-6.1
	C505.3,373.1,507.2,375.8,506.5,380.4 M519.7,397.1c-2.4,5.1-5,7.8-10.8,8.9l-0.1-2c4.9-1.1,6.3-2.9,8.4-7h-1l-4.8-23.3h2.8l4,21.3
	l9.9-21.3h2.8L519.7,397.1z M548.5,375.7l-1.4,1.6c-1.7-1.3-3.5-2-5.8-2c-3.3,0-5.5,1.5-5.5,3.9c0,2,1.2,3.1,5.1,4.3
	c4.6,1.4,6.5,3.3,6.5,6.7c0,4.3-3.5,7.2-9.1,7.2c-3.9,0-6.4-1.4-8.2-3.2l1.5-1.5c1.8,1.5,3.9,2.5,6.8,2.5c4.1,0,6.3-2,6.3-4.8
	c0-2.5-1.2-3.6-5.3-4.9c-4.7-1.5-6.2-3.3-6.2-6.2c0-3.3,3-6.2,8.2-6.2C544.3,373.1,546.6,374.1,548.5,375.7 M555.9,365.4
	c0-1.2,0.9-2,2.1-2c1.1,0,1.8,0.7,1.8,1.7c0,1.2-0.9,2-2.1,2C556.6,367.1,555.9,366.4,555.9,365.4L555.9,365.4z M554.6,396.9h-2.6
	l3.3-23.3h2.6L554.6,396.9z M580.5,375.5l-1.5,1.6c-1.3-1.2-2.8-1.9-4.9-1.9c-6.7,0-8.9,7.7-8.9,12.8c0,4.8,2.3,7,5.8,7
	c2.2,0,4-0.8,5.7-2l1.1,1.8c-2,1.6-4.4,2.4-7,2.4c-5.2,0-8.4-3.4-8.4-9.4c0-6.1,3.1-14.9,11.6-14.9
	C576.7,373.1,578.8,373.8,580.5,375.5 M600,375.7l-1.4,1.6c-1.7-1.3-3.5-2-5.8-2c-3.3,0-5.5,1.5-5.5,3.9c0,2,1.2,3.1,5.1,4.3
	c4.6,1.4,6.5,3.3,6.5,6.7c0,4.3-3.5,7.2-9.1,7.2c-3.9,0-6.4-1.4-8.2-3.2l1.5-1.5c1.8,1.5,3.9,2.5,6.8,2.5c4.1,0,6.3-2,6.3-4.8
	c0-2.5-1.2-3.6-5.3-4.9c-4.7-1.5-6.2-3.3-6.2-6.2c0-3.3,3-6.2,8.2-6.2C595.8,373.1,598,374.1,600,375.7 M15.1,312.3L0,344.2h2.9
	l4-8.7h13.4l1.5,8.7h2.9l-6.1-31.9H15.1z M16.5,314.6l3.3,18.5H8L16.5,314.6z"/>
</svg>
